# This file uses centimeters as units for non-parametric coordinates.

mtllib crystallizationlowUV.mtl
g default
v 0.800090 -4.482758 -1.431478
v 0.000000 -3.413688 -1.273758
v 0.000000 -4.258851 -0.789445
v 0.253477 -4.570050 -0.850272
v -0.253477 -4.570050 -0.850272
v -0.800090 -4.482758 -1.431478
v 0.000000 -4.362007 -2.276509
v 0.000000 -4.910728 -0.905394
v 0.000000 -5.555101 -1.585806
vt 0.063941 0.979669
vt 0.063941 0.594470
vt 0.280313 0.770700
vt 0.274306 0.886841
vt 0.975579 0.436742
vt 0.765215 0.343915
vt 0.759208 0.227774
vt 0.975579 0.051544
vt 0.505716 0.683350
vt 0.505699 0.287986
vt 0.804361 0.531253
vt 0.454661 0.393436
vt 0.454644 0.788800
vt 0.155999 0.636704
vt 0.207101 0.406715
vt 0.211853 0.522914
vt 0.094802 0.559611
vt 0.094802 0.436942
vt 0.754513 0.609638
vt 0.964421 0.515782
vt 0.964421 0.901614
vt 0.756084 0.732297
vt 0.713628 0.979450
vt 0.503721 0.885592
vt 0.505289 0.762933
vt 0.713628 0.593619
vt 0.373724 0.038222
vt 0.373522 0.433155
vt 0.074491 0.281791
vt 0.723002 0.028828
vt 0.723205 0.423760
vt 0.423972 0.180191
vn 0.640870 0.383925 0.664746
vn 0.640870 0.383925 0.664746
vn 0.640870 0.383925 0.664746
vn 0.640870 0.383925 0.664746
vn -0.640870 0.383925 0.664746
vn -0.640870 0.383925 0.664746
vn -0.640870 0.383925 0.664746
vn -0.640870 0.383925 0.664746
vn 0.641102 0.557596 -0.527328
vn 0.641102 0.557596 -0.527328
vn 0.641102 0.557596 -0.527328
vn -0.641102 0.557596 -0.527328
vn -0.641102 0.557596 -0.527328
vn -0.641102 0.557596 -0.527328
vn 0.000000 -0.175120 0.984547
vn 0.000000 -0.175120 0.984547
vn 0.000000 -0.175120 0.984547
vn 0.000000 -0.175120 0.984547
vn -0.643276 -0.557432 0.524848
vn -0.643276 -0.557432 0.524848
vn -0.643276 -0.557432 0.524848
vn -0.643276 -0.557432 0.524848
vn 0.643276 -0.557432 0.524848
vn 0.643276 -0.557432 0.524848
vn 0.643276 -0.557432 0.524848
vn 0.643276 -0.557432 0.524848
vn 0.643068 -0.383683 -0.662760
vn 0.643068 -0.383683 -0.662760
vn 0.643068 -0.383683 -0.662760
vn -0.643068 -0.383683 -0.662760
vn -0.643068 -0.383683 -0.662760
vn -0.643068 -0.383683 -0.662760
vn -0.643068 -0.383683 -0.662760
vn -0.643068 -0.383683 -0.662760
s off
g crystallizationlowUV2:polySurface1
usemtl phongE2SG
f 1/1/1 2/2/2 3/3/3 4/4/4
f 6/5/5 5/6/6 3/7/7 2/8/8
f 7/9/9 2/10/10 1/11/11
f 2/12/12 7/13/13 6/14/14
f 3/15/15 5/16/16 8/17/17 4/18/18
f 5/19/19 6/20/20 9/21/21 8/22/22
f 1/23/23 4/24/24 8/25/25 9/26/26
f 9/27/27 7/28/28 1/29/29
f 7/30/30 9/31/31 6/32/32
